<?xml version="1.0" standalone="no"?><!DOCTYPE svg PUBLIC "-//W3C//DTD SVG 1.1//EN" "http://www.w3.org/Graphics/SVG/1.1/DTD/svg11.dtd"><svg t="1610440875805" class="icon" viewBox="0 0 1024 1024" version="1.1" xmlns="http://www.w3.org/2000/svg" p-id="2124" xmlns:xlink="http://www.w3.org/1999/xlink" width="200" height="200"><defs><style type="text/css"></style></defs><path d="M110.250667 719.928889L2.446222 876.145778c-5.404444 9.728 0 21.959111 13.482667 21.959111l145.578667 7.338667c5.404444 0 8.078222 2.389333 10.808888 4.835555l88.917334 107.406222c8.135111 7.338667 21.617778 7.338667 26.965333 0l102.456889-153.770666c5.404444-7.281778 2.730667-14.620444-5.347556-19.512889L131.868444 715.093333a22.528 22.528 0 0 0-21.617777 4.892445z m803.498666-2.446222l107.804445 156.216889c5.404444 9.728 0 21.959111-13.482667 21.959111l-145.578667 7.338666c-5.404444 0-8.078222 2.446222-10.808888 4.835556l-88.917334 107.406222c-8.135111 7.338667-21.617778 7.338667-26.965333 0l-102.456889-153.770667c-5.404444-7.281778-2.730667-14.620444 5.347556-19.512888l253.44-129.308445c8.135111-4.892444 16.213333-2.446222 21.617777 4.835556z m-21.617777-532.024889L549.717333 9.784889a93.923556 93.923556 0 0 0-80.839111 0L129.137778 183.011556c-24.234667 12.231111-40.391111 36.636444-40.391111 61.041777v348.956445c0 24.462222 16.156444 48.810667 40.391111 61.041778l342.471111 175.729777c24.234667 12.174222 56.547556 12.174222 80.782222 0l339.740445-170.837333c24.291556-12.231111 40.448-36.636444 40.448-61.041778V248.945778c0-26.851556-16.156444-51.256889-40.391112-63.488zM730.453333 334.336l-199.509333 261.12c-5.404444 7.395556-16.213333 12.231111-26.965333 12.231111-10.808889 0-21.617778-4.892444-26.965334-12.231111l-191.431111-261.12c-10.808889-12.174222-5.404444-31.744 8.078222-39.025778 13.482667-7.338667 35.043556-4.892444 43.121778 7.281778L501.191111 527.132444l172.600889-226.986666c10.808889-12.174222 29.582222-17.066667 43.121778-7.281778 21.560889 12.174222 24.234667 29.297778 13.482666 41.528889z" fill="#d7191c" p-id="2125"></path></svg>