<?xml version="1.0" standalone="no"?><!DOCTYPE svg PUBLIC "-//W3C//DTD SVG 1.1//EN" "http://www.w3.org/Graphics/SVG/1.1/DTD/svg11.dtd"><svg t="1610440866493" class="icon" viewBox="0 0 1170 1024" version="1.1" xmlns="http://www.w3.org/2000/svg" p-id="1844" xmlns:xlink="http://www.w3.org/1999/xlink" width="228.515625" height="200"><defs><style type="text/css"></style></defs><path d="M1029.275373 162.46071H1096.903105A73.126874 73.126874 0 0 1 1170.029979 235.646085v365.868375a73.126874 73.126874 0 0 1-73.126874 73.185375h-133.12016L657.790854 232.340751 622.163441 181.941709l-217.771829 100.622579a73.068372 73.068372 0 0 1-45.046155 5.323636C292.917005 274.491081 270.598683 251.236735 292.507495 218.007883c21.177543-32.175824 111.269851-96.849232 270.306176-194.137224 4.153606-2.574066 8.482717-4.767872 12.89958-6.522917 66.808712-31.473806 143.036165-20.124516 228.68236 34.077123a1177.371917 1177.371917 0 0 0 224.850511 111.035845h0.058501zM49.96028 670.926488A73.185375 73.185375 0 0 1 0 601.51446V235.646085a73.126874 73.126874 0 0 1 73.126874-73.185375h168.63057l-0.292507 0.263257a94.772428 94.772428 0 0 0 3.9196 144.147693 196.360281 196.360281 0 0 0 190.685636 31.737064l164.476965-60.022538 115.364955 166.846275c3.539341 3.393087 6.727672 7.166434 9.535745 11.203037l202.210431 292.419742a73.214626 73.214626 0 0 1-27.70046 107.203997L576.971033 1016.173084a72.717363 72.717363 0 0 1-46.801199 6.142658l11.963557-12.10981a146.429252 146.429252 0 0 0 0-205.749772l-234.005996-236.960322a109.66106 109.66106 0 0 0-156.052748 0l-102.172868 103.43065h0.02925z m229.238124-31.473806l207.534067 210.108133c18.193966 18.427972 25.301898 45.163157 18.632728 70.201799L494.922681 959.42663a56.395445 56.395445 0 0 1-87.898502 31.005795l-266.825337-196.418783a73.185375 73.185375 0 0 1-8.687472-110.392328l43.642118-44.197883a73.126874 73.126874 0 0 1 104.015665 0l0.029251 0.058502z" fill="#fdae61" p-id="1845"></path></svg>