<?xml version="1.0" standalone="no"?><!DOCTYPE svg PUBLIC "-//W3C//DTD SVG 1.1//EN" "http://www.w3.org/Graphics/SVG/1.1/DTD/svg11.dtd"><svg t="1610537604080" class="icon" viewBox="0 0 1024 1024" version="1.1" xmlns="http://www.w3.org/2000/svg" p-id="1512" xmlns:xlink="http://www.w3.org/1999/xlink" width="200" height="200"><defs><style type="text/css"></style></defs><path d="M516.708743 834.513368" p-id="1513" fill="#515151"></path><path d="M787.97903 179.736571c73.336262 0 139.182946-40.397059 184.183859-70.991868l0 578.579371c-44.980447 30.589692-110.86397 70.996984-184.183859 70.996984-73.372078 0-139.208529-21.98471-184.17772-52.605102-44.979424-30.574343-110.862947-52.563146-184.183859-52.563146-73.336262 0-139.181923 37.780465-184.178743 68.385507L235.438709 142.958946c44.974307-30.585599 110.85783-68.385507 184.178743-68.385507 73.372078 0 139.182946 21.994943 184.183859 52.599985C648.770502 157.75186 714.623325 179.736571 787.97903 179.736571L787.97903 179.736571zM112.608196 12.44545c33.876552 0 61.373813 27.877931 61.373813 62.169945L173.982008 1007.008001 51.192428 1007.008001 51.192428 74.615395c0-34.276664 27.511587-62.169945 61.394279-62.169945L112.608196 12.44545zM112.608196 12.44545" p-id="1514" fill="#515151"></path></svg>