<?xml version="1.0" standalone="no"?><!DOCTYPE svg PUBLIC "-//W3C//DTD SVG 1.1//EN" "http://www.w3.org/Graphics/SVG/1.1/DTD/svg11.dtd"><svg t="1610440871171" class="icon" viewBox="0 0 1024 1024" version="1.1" xmlns="http://www.w3.org/2000/svg" p-id="1984" xmlns:xlink="http://www.w3.org/1999/xlink" width="200" height="200"><defs><style type="text/css"></style></defs><path d="M955.733333 0H68.266667a68.266667 68.266667 0 0 0-68.266667 68.266667v887.466666a68.266667 68.266667 0 0 0 68.266667 68.266667h887.466666a68.266667 68.266667 0 0 0 68.266667-68.266667V68.266667a68.266667 68.266667 0 0 0-68.266667-68.266667zM470.698667 688.810667l-104.789334 24.576V887.466667H291.157333v-159.061334c-47.445333 8.192-97.621333 16.384-149.162666 22.869334l-9.898667-76.117334c55.637333-6.485333 108.885333-13.994667 159.061333-22.186666V546.133333H160.085333l-16.384-68.266666A1018.88 1018.88 0 0 0 204.8 307.2H132.096V233.472h91.818667c7.509333-32.085333 14.677333-65.536 21.162666-102.4l73.728 10.581333C312.661333 174.421333 307.2 204.8 299.349333 233.472h147.456V307.2H279.893333a1580.373333 1580.373333 0 0 1-57.344 167.253333h68.266667v-114.005333h74.410667v115.370667h85.333333v68.266666h-85.333333v93.525334c36.864-7.509333 72.021333-15.701333 104.789333-23.893334z m421.205333-229.376h-262.485333c-8.874667 31.061333-18.090667 60.757333-26.282667 87.722666h255.658667v63.829334a586.752 586.752 0 0 1-119.466667 156.330666c29.354667 18.090667 57.344 37.546667 84.309333 57.344l-43.349333 68.266667a1169.408 1169.408 0 0 0-258.730667-154.965333l41.642667-61.44a1041.066667 1041.066667 0 0 1 112.981333 55.637333 569.344 569.344 0 0 0 102.4-115.370667h-273.066666c16.384-49.834667 31.061333-102.4 45.738666-156.330666h-95.232v-75.434667h115.712q8.533333-39.253333 17.066667-76.117333h-109.226667V233.472h123.562667c6.485333-34.133333 12.288-68.266667 18.090667-102.4l76.117333 7.509333C691.882667 170.666667 686.08 204.8 682.666667 233.472h190.122666V307.2h-204.8q-8.533333 39.253333-17.066666 76.117333h243.370666z" fill="#a6d96a" p-id="1985"></path></svg>